<svg xmlns="http://www.w3.org/2000/svg" width="152" height="47" fill="none" viewBox="0 0 152 47">
    <rect width="55" height="47" fill="#1E2229" rx="5"/>
    <path fill="#fff" d="M49.382 27H5.625c-.078.003-.157-.008-.23-.033-.075-.026-.143-.066-.2-.117-.06-.052-.106-.114-.14-.184-.033-.07-.052-.145-.055-.222V4.558c.003-.077.02-.153.054-.223.033-.07.08-.133.138-.185.059-.052.127-.092.201-.117.075-.026.154-.037.232-.032h43.757c.078-.003.156.008.23.034.073.026.14.066.198.118.057.052.104.114.136.184.033.07.051.144.054.22v21.955c0 .279-.304.487-.618.487zM6.243 25.957h42.593V5.044H6.243v20.914zM38.383 29.998H16.626c-.079.004-.157-.006-.232-.029-.074-.023-.142-.058-.2-.105-.059-.046-.106-.102-.139-.165-.033-.062-.052-.13-.055-.199 0-.312.235-.498.626-.498h21.757c.079-.006.158.003.232.025.075.023.143.059.201.106.058.046.104.103.136.166.032.064.048.132.048.201s-.016.137-.048.2c-.032.064-.078.12-.136.167-.058.047-.126.083-.2.106-.075.022-.154.03-.233.025z"/>
    <path fill="#fff" d="M44.452 29h-3.383v1.051h2.834v3.886h-32.8V30.06h3.07v-1.051h-3.624c-.146 0-.285.055-.388.154-.103.098-.161.232-.161.371v4.94c0 .14.058.274.16.372.104.099.243.154.389.154h33.903c.145 0 .285-.055.387-.154.103-.098.161-.232.161-.371V29.53c0-.07-.013-.139-.04-.203-.027-.064-.068-.123-.119-.172-.05-.05-.111-.089-.178-.115-.067-.027-.139-.041-.211-.041z"/>
    <path fill="#fff" d="M28.457 33h-2.915c-.143 0-.281-.053-.383-.146-.102-.094-.159-.221-.159-.354 0-.133.057-.26.159-.354.102-.093.24-.146.384-.146h2.915c.143 0 .281.053.383.146.102.094.159.221.159.354 0 .133-.057.26-.159.354-.102.093-.24.146-.384.146zM22.605 37c.08 0 .16.017.234.049.074.031.14.077.196.134 1.052 1.038 2.478 1.62 3.965 1.62 1.487 0 2.914-.582 3.966-1.62.113-.112.267-.175.428-.175.16 0 .315.063.429.175.113.112.177.264.177.423 0 .158-.064.31-.177.423C30.543 39.29 28.808 40 26.998 40c-1.808 0-3.543-.709-4.823-1.971-.084-.084-.141-.19-.165-.307-.023-.116-.01-.236.035-.345.046-.11.124-.203.223-.268.1-.066.217-.101.337-.102V37zM20.595 40c.079 0 .157.014.23.038.072.024.137.06.192.104.787.612 1.72 1.098 2.748 1.43 1.028.33 2.13.501 3.243.501s2.215-.17 3.243-.502c1.028-.331 1.962-.817 2.748-1.43.113-.08.263-.125.417-.122.154.002.3.051.41.136.109.085.171.2.174.32.003.119-.054.235-.159.323C32.03 42.208 29.571 43 27.008 43c-2.563 0-5.02-.792-6.833-2.202-.056-.043-.1-.094-.13-.15-.03-.057-.045-.117-.045-.178 0-.061.015-.121.045-.178.03-.056.074-.107.13-.15.054-.045.12-.08.192-.104.072-.024.15-.037.228-.038zM27.504 21c-.89 0-1.761-.263-2.502-.757-.74-.494-1.317-1.196-1.659-2.019-.34-.822-.43-1.727-.257-2.6.174-.873.602-1.676 1.231-2.305.63-.63 1.432-1.059 2.305-1.233.873-.173 1.778-.084 2.6.257.823.34 1.526.918 2.02 1.658.495.74.758 1.61.758 2.5-.002 1.193-.476 2.336-1.319 3.179s-1.985 1.318-3.177 1.32zm0-7.931c-.68 0-1.343.2-1.908.577-.565.377-1.005.913-1.266 1.54-.26.628-.328 1.318-.196 1.985.133.666.46 1.277.94 1.758.48.48 1.091.807 1.757.94.666.133 1.357.065 1.984-.195.628-.26 1.164-.7 1.541-1.265.378-.564.58-1.228.58-1.907-.001-.91-.363-1.783-1.006-2.427-.644-.643-1.516-1.005-2.426-1.006z"/>
    <path fill="#fff" d="M34 27h-1.036c.013-.769-.119-1.533-.388-2.247-.268-.715-.669-1.365-1.177-1.914-.509-.549-1.116-.984-1.785-1.282-.67-.297-1.388-.45-2.114-.45s-1.445.153-2.114.45c-.67.298-1.276.733-1.785 1.282-.508.549-.909 1.2-1.177 1.914-.27.714-.4 1.478-.388 2.247h-1.035c-.014-.914.143-1.821.463-2.67.32-.849.797-1.621 1.402-2.273.605-.651 1.326-1.169 2.122-1.522.795-.353 1.65-.535 2.512-.535.863 0 1.717.182 2.512.535.796.353 1.517.87 2.122 1.522s1.081 1.424 1.401 2.273c.32.849.478 1.756.464 2.67z"/>
    <path fill="#CB9866" d="M70.709 0h3.637l6.893 19.298h-3.76l-1.195-3.437h-7.513l-1.194 3.437h-3.768L70.709 0zm-.715 12.424h5.093l-2.548-7.323-2.545 7.323zM78.725 0h3.742l4.593 13.8L91.626 0h3.742l-6.503 19.298h-3.637L78.725 0z"/>
    <path fill="#fff" d="M64 27h11.494v3.437h-7.882v4.44h7.882v3.437h-7.882v4.547h7.882v3.437H64V27zM84.759 39.662l-4.01 6.638h-4.06l5.927-9.756L76.823 27h4.032l3.904 6.424 3.9-6.424h4.061l-5.839 9.544 5.944 9.754h-4.034l-4.032-6.636zM94.232 27h6.637c.956-.011 1.904.173 2.786.541.823.343 1.57.841 2.202 1.468.626.625 1.122 1.366 1.461 2.18.356.85.537 1.764.531 2.684.005.925-.175 1.842-.531 2.697-.337.82-.833 1.565-1.461 2.193-.635.63-1.387 1.128-2.215 1.468-.887.368-1.84.552-2.801.541h-3v5.526h-3.609V27zm3.61 3.32v7.113h2.76c.501.005.998-.09 1.461-.279.428-.177.816-.437 1.141-.766.319-.328.572-.714.743-1.138.352-.892.352-1.884 0-2.776-.169-.42-.422-.802-.743-1.123-.327-.323-.715-.58-1.141-.753-.463-.19-.96-.285-1.461-.279h-2.76zM109.652 27h11.491v3.437h-7.882v4.44h7.882v3.437h-7.882v4.547h7.882v3.437h-11.491V27zM123.162 46.298V27h6.211c1.046-.02 2.087.146 3.076.488.844.295 1.617.764 2.268 1.376.623.593 1.108 1.314 1.42 2.114.338.873.505 1.802.493 2.737.005 1.141-.283 2.264-.836 3.263-.557 1.012-1.402 1.836-2.43 2.367l3.876 6.953h-4.127l-3.102-5.896h-3.24v5.896h-3.609zm5.896-9.192c.635.017 1.268-.077 1.871-.278.461-.157.879-.42 1.22-.766.305-.319.532-.703.664-1.124.135-.436.202-.891.2-1.348.02-.437-.053-.873-.216-1.279-.163-.406-.411-.772-.728-1.075-.628-.58-1.632-.87-3.011-.87h-2.284v6.74h2.284zM142.617 30.437h-5.176V27h13.988v3.437h-5.203v15.86h-3.609v-15.86z"/>
</svg>
